# Made in Blockbench 5.0.1
mtllib model.mtl

o v_900543345346
v 0.06289198330023005 0.25 0.12473808513236517
v 0.11072741234586625 0.25 0.00925314356845433
v 0.06289198330023005 0 0.12473808513236517
v 0.11072741234586625 0 0.00925314356845433
v -0.12024247078195542 0.25 -0.0864177145228181
v -0.16807789982759164 0.25 0.02906722704109274
v -0.12024247078195542 0 -0.0864177145228181
v -0.16807789982759164 0 0.02906722704109274
vt 0.25 0.75
vt 0.375 0.75
vt 0.375 0.625
vt 0.25 0.625
vt 0.1875 0.5
vt 0.25 0.5
vt 0.25 0.375
vt 0.1875 0.375
vt 0 0.625
vt 0.125 0.625
vt 0.125 0.5
vt 0 0.5
vt 0.5 0.8125
vt 0.5625 0.8125
vt 0.5625 0.6875
vt 0.5 0.6875
vt 0.375 0.4375
vt 0.25 0.4375
vt 0.25 0.5
vt 0.375 0.5
vt 0.625 0.6875
vt 0.5 0.6875
vt 0.5 0.625
vt 0.625 0.625
vn 0.3826834323650897 0 -0.9238795325112867
vn 0.9238795325112867 0 0.3826834323650897
vn -0.3826834323650897 0 0.9238795325112867
vn -0.9238795325112867 0 -0.3826834323650897
vn 0 1 0
vn 0 -1 0
usemtl m_683eba6e-e549-13ef-ac21-96defc2eda33
f 4/4/1 7/3/1 5/2/1 2/1/1
f 3/8/2 4/7/2 2/6/2 1/5/2
f 8/12/3 3/11/3 1/10/3 6/9/3
f 7/16/4 8/15/4 6/14/4 5/13/4
f 6/20/5 1/19/5 2/18/5 5/17/5
f 7/24/6 4/23/6 3/22/6 8/21/6
o v_900543345347
v 0.1875 0.25 0.125
v 0.1875 0.25 -0.125
v 0.1875 0 0.125
v 0.1875 0 -0.125
v 0.0625 0.25 -0.125
v 0.0625 0.25 0.125
v 0.0625 0 -0.125
v 0.0625 0 0.125
vt 0.4375 1
vt 0.5 1
vt 0.5 0.875
vt 0.4375 0.875
vt 0 0.75
vt 0.125 0.75
vt 0.125 0.625
vt 0 0.625
vt 0.4375 0.875
vt 0.5 0.875
vt 0.5 0.75
vt 0.4375 0.75
vt 0.25 1
vt 0.375 1
vt 0.375 0.875
vt 0.25 0.875
vt 0.5 0.625
vt 0.4375 0.625
vt 0.4375 0.75
vt 0.5 0.75
vt 0.5 0.625
vt 0.4375 0.625
vt 0.4375 0.5
vt 0.5 0.5
vn 0 0 -1
vn 1 0 0
vn 0 0 1
vn -1 0 0
vn 0 1 0
vn 0 -1 0
usemtl m_683eba6e-e549-13ef-ac21-96defc2eda33
f 12/28/7 15/27/7 13/26/7 10/25/7
f 11/32/8 12/31/8 10/30/8 9/29/8
f 16/36/9 11/35/9 9/34/9 14/33/9
f 15/40/10 16/39/10 14/38/10 13/37/10
f 14/44/11 9/43/11 10/42/11 13/41/11
f 15/48/12 12/47/12 11/46/12 16/45/12
o v_900546578864
v -0.125 0.25 -0.0625
v -0.125 0.25 -0.3125
v -0.125 0 -0.0625
v -0.125 0 -0.3125
v -0.25 0.25 -0.3125
v -0.25 0.25 -0.0625
v -0.25 0 -0.3125
v -0.25 0 -0.0625
vt 0.25 0.625
vt 0.3125 0.625
vt 0.3125 0.5
vt 0.25 0.5
vt 0.125 1
vt 0.25 1
vt 0.25 0.875
vt 0.125 0.875
vt 0.375 0.75
vt 0.4375 0.75
vt 0.4375 0.625
vt 0.375 0.625
vt 0.125 0.875
vt 0.25 0.875
vt 0.25 0.75
vt 0.125 0.75
vt 0.375 0.5
vt 0.3125 0.5
vt 0.3125 0.625
vt 0.375 0.625
vt 0.4375 0.625
vt 0.375 0.625
vt 0.375 0.5
vt 0.4375 0.5
vn 0 0 -1
vn 1 0 0
vn 0 0 1
vn -1 0 0
vn 0 1 0
vn 0 -1 0
usemtl m_683eba6e-e549-13ef-ac21-96defc2eda33
f 20/52/13 23/51/13 21/50/13 18/49/13
f 19/56/14 20/55/14 18/54/14 17/53/14
f 24/60/15 19/59/15 17/58/15 22/57/15
f 23/64/16 24/63/16 22/62/16 21/61/16
f 22/68/17 17/67/17 18/66/17 21/65/17
f 23/72/18 20/71/18 19/70/18 24/69/18
o v_900546578865
v 0.1875 0.25 -0.0625
v 0.1875 0.25 -0.3125
v 0.1875 0 -0.0625
v 0.1875 0 -0.3125
v 0.0625 0.25 -0.3125
v 0.0625 0.25 -0.0625
v 0.0625 0 -0.3125
v 0.0625 0 -0.0625
vt 0.375 1
vt 0.4375 1
vt 0.4375 0.875
vt 0.375 0.875
vt 0 1
vt 0.125 1
vt 0.125 0.875
vt 0 0.875
vt 0.125 0.625
vt 0.1875 0.625
vt 0.1875 0.5
vt 0.125 0.5
vt 0 0.875
vt 0.125 0.875
vt 0.125 0.75
vt 0 0.75
vt 0.4375 0.75
vt 0.375 0.75
vt 0.375 0.875
vt 0.4375 0.875
vt 0.25 0.625
vt 0.1875 0.625
vt 0.1875 0.5
vt 0.25 0.5
vn 0 0 -1
vn 1 0 0
vn 0 0 1
vn -1 0 0
vn 0 1 0
vn 0 -1 0
usemtl m_683eba6e-e549-13ef-ac21-96defc2eda33
f 28/76/19 31/75/19 29/74/19 26/73/19
f 27/80/20 28/79/20 26/78/20 25/77/20
f 32/84/21 27/83/21 25/82/21 30/81/21
f 31/88/22 32/87/22 30/86/22 29/85/22
f 30/92/23 25/91/23 26/90/23 29/89/23
f 31/96/24 28/95/24 27/94/24 32/93/24
o v_900543345347
v 0.11936911812593132 0.25 -0.3044403371712673
v 0.12482154154659833 0.25 -0.4293213648689995
v 0.11936911812593132 0 -0.3044403371712673
v 0.12482154154659833 0 -0.4293213648689995
v -0.12494051384886612 0.25 -0.4402262117103335
v -0.1303929372695331 0.25 -0.31534518401260125
v -0.12494051384886612 0 -0.4402262117103335
v -0.1303929372695331 0 -0.31534518401260125
vt 0.125 0.75
vt 0.25 0.75
vt 0.25 0.625
vt 0.125 0.625
vt 0 0.5
vt 0.0625 0.5
vt 0.0625 0.375
vt 0 0.375
vt 0.25 0.875
vt 0.375 0.875
vt 0.375 0.75
vt 0.25 0.75
vt 0.5 1
vt 0.5625 1
vt 0.5625 0.875
vt 0.5 0.875
vt 0.1875 0.4375
vt 0.0625 0.4375
vt 0.0625 0.5
vt 0.1875 0.5
vt 0.625 0.875
vt 0.5 0.875
vt 0.5 0.8125
vt 0.625 0.8125
vn 0.043619387365336 0 -0.9990482215818578
vn 0.9990482215818578 0 0.043619387365336
vn -0.043619387365336 0 0.9990482215818578
vn -0.9990482215818578 0 -0.043619387365336
vn 0 1 0
vn 0 -1 0
usemtl m_683eba6e-e549-13ef-ac21-96defc2eda33
f 36/100/25 39/99/25 37/98/25 34/97/25
f 35/104/26 36/103/26 34/102/26 33/101/26
f 40/108/27 35/107/27 33/106/27 38/105/27
f 39/112/28 40/111/28 38/110/28 37/109/28
f 38/116/29 33/115/29 34/114/29 37/113/29
f 39/120/30 36/119/30 35/118/30 40/117/30