<svg version="1.1" xmlns="http://www.w3.org/2000/svg" xmlns:xlink="http://www.w3.org/1999/xlink" width="55.94088" height="64.32714" viewBox="0,0,55.94088,64.32714"><g transform="translate(-212.02956,-143.22855)"><g data-paper-data="{&quot;isPaintingLayer&quot;:true}" fill-rule="nonzero" stroke-linecap="butt" stroke-linejoin="miter" stroke-miterlimit="10" stroke-dasharray="" stroke-dashoffset="0" style="mix-blend-mode: normal"><path d="M264.47045,180c0,13.28559 -10.95579,24.05569 -24.47044,24.05569c-13.51465,0 -24.47044,-10.77009 -24.47044,-24.05569c0,-13.28559 10.95579,-24.05569 24.47044,-24.05569c13.51465,0 24.47044,10.7701 24.47044,24.05569z" fill="#ff6666" stroke="#000000" stroke-width="7"/><path d="" fill="#ffffff" stroke="none" stroke-width="0.5"/><path d="M246.7959,143.32155c0.78725,0.21508 1.35675,0.90548 2.05316,1.33716c-0.59745,-0.19187 -1.19377,-0.38641 -1.78872,-0.58424c-0.76271,-0.25361 -1.51217,-0.54669 -2.25942,-0.84592c0.99615,0.01503 1.81113,0.04277 1.99499,0.093z" fill="#ffffff" stroke="none" stroke-width="0.5"/><path d="M251.06847,145.359c-0.18358,-0.05701 -0.3671,-0.11419 -0.55052,-0.17157c0.50951,0.08569 1.02241,0.16103 1.4954,0.35408c-0.30984,-0.06196 -0.62633,-0.12292 -0.94488,-0.18251z" fill="#ffffff" stroke="none" stroke-width="0.5"/><path d="" fill="#ffffff" stroke="none" stroke-width="0.5"/></g></g></svg>