<svg version="1.1" xmlns="http://www.w3.org/2000/svg" xmlns:xlink="http://www.w3.org/1999/xlink" width="74.625" height="97.8055" viewBox="0,0,74.625,97.8055"><defs><linearGradient x1="208.4375" y1="180.00061" x2="271.5625" y2="180.00061" gradientUnits="userSpaceOnUse" id="color-1"><stop offset="0" stop-color="#8dc63f"/><stop offset="1" stop-color="#006838"/></linearGradient><radialGradient cx="240" cy="179.99987" r="22.3811" gradientUnits="userSpaceOnUse" id="color-2"><stop offset="0" stop-color="#d7df23"/><stop offset="1" stop-color="#009444"/></radialGradient></defs><g transform="translate(-196.9375,-113.757)"><g data-paper-data="{&quot;isPaintingLayer&quot;:true}" fill-rule="nonzero" stroke="none" stroke-width="1" stroke-linecap="butt" stroke-linejoin="miter" stroke-miterlimit="10" stroke-dasharray="" stroke-dashoffset="0" style="mix-blend-mode: normal"><path d="M271.5625,180c0,17.40273 -14.15825,31.5625 -31.5625,31.5625c-17.40348,0 -31.5625,-14.15977 -31.5625,-31.5625c0,-17.40348 14.15825,-31.5625 31.5625,-31.5625c17.40425,0 31.5625,14.15977 31.5625,31.5625z" fill="url(#color-1)"/><path d="M217.6185,180c0,-12.36096 10.02054,-22.3815 22.3815,-22.3815c12.36096,0 22.3815,10.02054 22.3815,22.3815c0,12.36096 -10.02054,22.3815 -22.3815,22.3815c-12.36096,0 -22.3815,-10.02054 -22.3815,-22.3815z" fill="url(#color-2)"/><text transform="translate(234.28,185.76875) scale(0.5,0.5)" font-size="40" xml:space="preserve" fill="#de2323" fill-rule="nonzero" stroke="none" stroke-width="1" stroke-linecap="butt" stroke-linejoin="miter" stroke-miterlimit="10" stroke-dasharray="" stroke-dashoffset="0" font-family="Sans Serif" font-weight="normal" text-anchor="start" style="mix-blend-mode: normal"><tspan x="0" dy="0">2</tspan></text><text transform="translate(197.1875,135.507) scale(0.5,0.5)" font-size="40" xml:space="preserve" fill="#de2323" fill-rule="nonzero" stroke="none" stroke-width="1" stroke-linecap="butt" stroke-linejoin="miter" stroke-miterlimit="10" stroke-dasharray="" stroke-dashoffset="0" font-family="Sans Serif" font-weight="normal" text-anchor="start" style="mix-blend-mode: normal"><tspan x="0" dy="0"> </tspan></text></g></g></svg>