<svg version="1.1" xmlns="http://www.w3.org/2000/svg" xmlns:xlink="http://www.w3.org/1999/xlink" width="394.77667" height="54.8994" viewBox="0,0,394.77667,54.8994"><g transform="translate(39.64865,21.25901)"><g data-paper-data="{&quot;isPaintingLayer&quot;:true}" fill-rule="nonzero" stroke-linecap="butt" stroke-linejoin="miter" stroke-miterlimit="10" stroke-dasharray="" stroke-dashoffset="0" style="mix-blend-mode: normal"><path d="M-39.64865,33.64039v-54.8994h87.02853l0,28.75063c-6.62804,-0.14442 -13.33207,0.26791 -19.61508,0.33271c-4.42517,0.04564 -18.01817,6.29642 -17.62976,11.23395c0.89889,11.42663 20.53103,8.91006 27.33674,8.93272c0.97032,0.00323 2.07969,0.06055 3.27632,0.13045c1.74148,1.0121 4.2736,0.87616 6.63178,0.71841v4.80054z" fill="#bfffff" stroke="none" stroke-width="0"/><path d="M352.62801,17.89114c0,5.7594 -4.90263,11.21413 -41.86748,11.21413l-261.56702,-0.3929c-36.9649,0 -39.84553,-5.06182 -39.84553,-10.82122c0,-5.75892 6.42446,-10.82074 43.38941,-10.82074l253.46674,0.3929c36.9649,0 46.42389,4.66892 46.42389,10.42784z" fill="none" stroke="#0048ff" stroke-width="5"/></g></g></svg>